<svg width="170.079" height="170.079" xmlns="http://www.w3.org/2000/svg"><g transform="matrix(3.77953 0 0 3.77953 873.07 646.3)"><rect style="fill:#e2e8f0;fill-opacity:1;stroke:none;stroke-width:4.684" width="45" height="45" x="-231" y="-171" rx="1.802" ry="1.802"/><g style="fill:#4299e1;fill-opacity:.73683"><path style="fill:#4299e1;fill-opacity:.73683;stroke:none;stroke-width:4.68398" d="M-213 42h9v15h-9z" transform="translate(0 -198)"/><path style="fill:#4299e1;fill-opacity:.73683;stroke:none;stroke-width:4.684" d="M-213 60h9v6h-9zM-213 33h9v6h-9z" transform="translate(0 -198)"/><path style="fill:#4299e1;fill-opacity:.73683;stroke:none;stroke-width:4.68397" d="M-201 54h9v12h-9z" transform="translate(0 -198)"/><path style="fill:#4299e1;fill-opacity:.73683;stroke:none;stroke-width:4.684" d="M-201 36h9v15h-9z" transform="translate(0 -198)"/><path style="fill:#4299e1;fill-opacity:.73683;stroke:none;stroke-width:4.68397" d="M-225 33h9v12h-9z" transform="translate(0 -198)"/><path style="fill:#4299e1;fill-opacity:.73683;stroke:none;stroke-width:4.684" d="M-225 48h9v15h-9z" transform="translate(0 -198)"/></g></g></svg>
